<?xml version="1.0" standalone="no"?>
<!DOCTYPE svg PUBLIC "-//W3C//DTD SVG 20010904//EN"
 "http://www.w3.org/TR/2001/REC-SVG-20010904/DTD/svg10.dtd">
<svg version="1.0" xmlns="http://www.w3.org/2000/svg"
 width="300.000000pt" height="300.000000pt" viewBox="0 0 300.000000 300.000000"
 preserveAspectRatio="xMidYMid meet">
<metadata>
Created by potrace 1.11, written by Peter Selinger 2001-2013
</metadata>
<g transform="translate(0.000000,300.000000) scale(0.100000,-0.100000)"
fill="#000000" stroke="none">
<path d="M0 1490 l0 -1490 1497 2 1498 3 -3 40 c-24 318 -314 1209 -599 1835
-98 217 -198 392 -263 461 -79 85 -281 113 -405 56 -54 -25 -126 -74 -181
-123 -175 -156 -196 -172 -281 -211 -106 -49 -246 -32 -357 42 -78 52 -191
175 -335 366 -196 258 -287 363 -378 430 -54 40 -139 79 -173 79 -20 0 -20
-16 -20 -1490z"/>
</g>
</svg>
